<svg xmlns="http://www.w3.org/2000/svg" viewBox="0 0 142.65 26.54"><defs><style>.cls-1{fill:#fff;}</style></defs><title>資產 2</title><g id="圖層_2" data-name="圖層 2"><g id="圖層_1-2" data-name="圖層 1"><path class="cls-1" d="M56.19,9.33l.87.32c.19-.36.39-.75.59-1.18V17h.9V5.83c.19-.91.35-2.08.48-3.31h-.88A15.47,15.47,0,0,1,56.19,9.33ZM62.07,15a5.27,5.27,0,0,1-.46-.58,17.54,17.54,0,0,0,1-5.84c0-.19-.1-.28-.3-.27H60.7l2.15-5H59.7v.94h1.75L59.54,8.7l-.23.51H61.7a13.15,13.15,0,0,1-.71,4,.55.55,0,0,0-.06-.18,15.49,15.49,0,0,1-.82-2.59l-.82.19a15.59,15.59,0,0,0,1.31,3.57,10.42,10.42,0,0,1-1.16,2.07l.84.7a9.77,9.77,0,0,0,1-1.8,4.38,4.38,0,0,0,2.49,1.59A9.93,9.93,0,0,0,65.8,17h4.62l.23-.94H65.46C63.88,16,63,15.91,62.07,15ZM63.27,5.9l-.45.94h3.34V8.2h-2l-.46.94h2.48V10.5H63.7l-.45.95h2.91v1.36H63.28l-.45.94h3.34v2.09l.9-.46V13.75h3l.45-.94h-3.5V11.45h2.68l.45-.95H67.06V9.14h2.75c.19,0,.29-.1.29-.3v-2h.3l.45-.94h-.76v-2a.26.26,0,0,0-.29-.29H67.05V2.51h-.9V3.59H64l-.45.94h2.6V5.9Zm3.79-1.36H69.1c.06,0,.09,0,.09.08V5.89H67.05Zm0,2.3H69.2V8.1c0,.07,0,.1-.09.1H67.05Z"/><path class="cls-1" d="M80.81,13.26a23.41,23.41,0,0,1-3.94,2.21l.5.8a20.52,20.52,0,0,0,4-2.27Zm-.94-.13a13.41,13.41,0,0,0-1.63-1.57l-.61.67a11,11,0,0,1,1.58,1.52Zm3.82-1.19c-.13-.23-.26-.47-.38-.7h4.35c.19,0,.29-.1.29-.3V9h.91l.45-.94H87.94v-2a.25.25,0,0,0-.29-.29H83.07V4.65h5.44L89,3.7H83.22l-.44-1.13h-1l.44,1.13H76.09c-.16,0-.24.09-.24.26v6.17a25.51,25.51,0,0,1-.22,3.5,13.32,13.32,0,0,1-.93,3l.87.34a16.57,16.57,0,0,0,1.18-6.59V9h5.42v1.3H78.09l-.45.94h4.54v4a1.67,1.67,0,0,1-.06.38.52.52,0,0,1-.47.32,16.33,16.33,0,0,1-1.81,0v1a6.82,6.82,0,0,0,2.77-.23,1.12,1.12,0,0,0,.47-1V12.74a9.51,9.51,0,0,0,3.56,3.43,12.5,12.5,0,0,0,1.72.86L89,16.2A9.37,9.37,0,0,1,83.68,11.94ZM82.17,5.82H78.66l-.46.94h4v1.3H76.75V4.76c0-.07,0-.11.11-.11h5.32Zm.9.94h3.87c.06,0,.09,0,.09.08V8.05h-4Zm0,2.24h4v1.2c0,.06,0,.1-.09.1H83.07Zm2.63,4.27.55.77a14.07,14.07,0,0,0,2.26-1.89l-.59-.72A15.77,15.77,0,0,1,85.7,13.27Z"/><path class="cls-1" d="M97.92,11.25a13.29,13.29,0,0,1-4.28,3.46l-.53-.8a11.54,11.54,0,0,0,3.77-2.66H93.21l.46-.95h2.4V4.53H93.45l.46-.94h2.16V2.5H97V3.59h6.7V2.5h.9V3.58h2.65l-.45.94h-2.19V10.3h3l-.46.95h-3.5a12.44,12.44,0,0,0,3.85,2.64l-.59.74a13.25,13.25,0,0,1-4.32-3.37Zm1.92,2.94H96.31l.45-.94h3.07V11.84h.9v1.41h3.56l-.45.94h-3.1v1.87H107l-.46.94H94.06l.46-.94h5.32Zm3.83-8.37V4.53H97v1.3Zm0,2.24V6.77H97V8.07Zm0,2.24V9H97v1.3Z"/><path class="cls-1" d="M58.66,21.13l-.78,1.71-.79-1.71h-.9l1.28,2.5v1.74h.82V23.63l1.27-2.5Zm2.21,1.1a1.26,1.26,0,0,0-1,.38,1.57,1.57,0,0,0-.35,1.2A1.57,1.57,0,0,0,59.91,25a1.27,1.27,0,0,0,1,.38,1.29,1.29,0,0,0,1-.38,1.58,1.58,0,0,0,.35-1.21,1.57,1.57,0,0,0-.35-1.2A1.28,1.28,0,0,0,60.87,22.23Zm.36,2.34a.48.48,0,0,1-.36.14.48.48,0,0,1-.36-.14,1.07,1.07,0,0,1-.18-.76,1.06,1.06,0,0,1,.18-.75.48.48,0,0,1,.36-.14.48.48,0,0,1,.36.14,1,1,0,0,1,.18.75A1.06,1.06,0,0,1,61.23,24.57Zm3.37-2.34a1.07,1.07,0,0,0-.77.32v-.28h-.76v3.1h.78V23.49a.52.52,0,1,1,1,0v1.88h.78v-2a1.16,1.16,0,0,0-.32-.88A1,1,0,0,0,64.6,22.23Zm9.46-1.33a.49.49,0,1,0,.48.48A.48.48,0,0,0,74.06,20.9Zm-.39,4.46h.78v-3.1h-.78ZM71,21.12h-.83v4.24h2.75v-.74H71Zm-2.66,1.43a.91.91,0,0,0-.76-.33,1,1,0,0,0-.75.27,1.6,1.6,0,0,0-.32,1.23A1.62,1.62,0,0,0,66.82,25a1,1,0,0,0,.74.27.91.91,0,0,0,.74-.31v.32a.59.59,0,0,1-.63.64.79.79,0,0,1-.61-.24l-.48.49a1.45,1.45,0,0,0,1.13.41,1.26,1.26,0,0,0,1.37-1.29v-3h-.75Zm-.54,2c-.46,0-.51-.4-.51-.81s0-.8.51-.8.51.39.51.8S68.25,24.53,67.79,24.53Zm9.94-2a1,1,0,0,0-.73-.27,1.07,1.07,0,0,0-.78.32v-.28h-.76v3.1h.77V23.48a.52.52,0,1,1,1,0v1.88H78v-2A1.15,1.15,0,0,0,77.72,22.49Z"/><path class="cls-1" d="M97,22.38a1.05,1.05,0,0,0-.82.36V21.11H95.7v4.24h.43V23.54a.69.69,0,0,1,.73-.78.68.68,0,0,1,.71.77v1.81H98V23.47A1,1,0,0,0,97,22.38Zm3.38.38a.8.8,0,0,1,.67.33l.29-.27a1.16,1.16,0,0,0-1-.44c-.74,0-1.3.5-1.3,1.5s.56,1.5,1.3,1.5a1.16,1.16,0,0,0,1-.44l-.29-.28a.81.81,0,0,1-.67.34.79.79,0,0,1-.68-.33,1.71,1.71,0,0,1,0-1.57A.79.79,0,0,1,100.34,22.76Zm-6.26-1.24h-.43v.92h-.37v.33h.37v1.8a.72.72,0,0,0,.75.79h.31V25h-.23c-.27,0-.4-.16-.4-.43V22.77h.62v-.33h-.62Zm9,.86a1.14,1.14,0,0,0-1,.44l.29.27a.77.77,0,0,1,.74-.33c.54,0,.75.21.75.64v.28H103c-.66,0-1,.33-1,.85a.84.84,0,0,0,.22.6,1,1,0,0,0,.83.27,1,1,0,0,0,.85-.32v.28h.43v-2C104.29,22.72,103.9,22.38,103.11,22.38Zm.75,1.93a.68.68,0,0,1-.15.51.86.86,0,0,1-.66.2c-.46,0-.67-.16-.67-.5s.21-.52.65-.52h.82Zm34.22-1.95a1.15,1.15,0,0,0-.84.34,1.57,1.57,0,0,0-.36,1.17,1.56,1.56,0,0,0,.36,1.17,1.22,1.22,0,0,0,1.68,0,1.57,1.57,0,0,0,.36-1.17,1.58,1.58,0,0,0-.36-1.17A1.15,1.15,0,0,0,138.08,22.36Zm.54,2.41a.74.74,0,0,1-.53.22.73.73,0,0,1-.53-.22,1.27,1.27,0,0,1-.24-.91,1.27,1.27,0,0,1,.24-.9.73.73,0,0,1,.53-.21.75.75,0,0,1,.53.21,1.26,1.26,0,0,1,.23.9A1.26,1.26,0,0,1,138.61,24.77Zm-46.54-.21V21.11h-.43v3.46a.7.7,0,0,0,.74.78h.31V25h-.23C92.17,25,92.07,24.84,92.07,24.55ZM83.31,23h-2v-1.9h-.45v4.24h.45V23.42h2v1.94h.45V21.11H83.3Zm47.58-.65a1.14,1.14,0,0,0-1,.44l.29.27a.77.77,0,0,1,.74-.33c.54,0,.75.21.75.64v.28h-.88c-.65,0-1,.33-1,.85a.84.84,0,0,0,.22.6,1.35,1.35,0,0,0,1.67,0v.28h.43v-2C132.06,22.7,131.67,22.36,130.88,22.36Zm.75,1.93a.68.68,0,0,1-.15.51.86.86,0,0,1-.66.2c-.46,0-.67-.16-.67-.5s.21-.52.65-.52h.82ZM89.29,22.38a1.14,1.14,0,0,0-1,.44l.29.27a.77.77,0,0,1,.74-.33c.54,0,.75.21.75.64v.28h-.88c-.65,0-1,.33-1,.85a.84.84,0,0,0,.22.6,1.35,1.35,0,0,0,1.67,0v.28h.43v-2C90.46,22.73,90.07,22.38,89.29,22.38ZM90,24.32a.67.67,0,0,1-.15.51.85.85,0,0,1-.65.2c-.46,0-.67-.16-.67-.5s.21-.52.66-.52H90ZM86.1,22.39c-.74,0-1.2.55-1.2,1.5s.51,1.5,1.28,1.5a1.34,1.34,0,0,0,1.07-.45L87,24.68a1,1,0,0,1-.77.33c-.56,0-.86-.37-.86-1h2v-.2C87.3,22.93,86.86,22.39,86.1,22.39Zm-.77,1.29a1.26,1.26,0,0,1,.09-.49.75.75,0,0,1,1.37,0,1.3,1.3,0,0,1,.09.49Zm36.09.53a.69.69,0,0,1-.73.78c-.44,0-.72-.26-.72-.78v-1.8h-.43v1.87a1.08,1.08,0,0,0,.3.82,1,1,0,0,0,.76.27,1.08,1.08,0,0,0,.83-.36v.33h.42V22.41h-.43Zm14,1.12h.43V22.4h-.43Zm-11.06-3a1.06,1.06,0,0,0-.82.36V22.4h-.43v2.93h.43V23.53a.69.69,0,0,1,.73-.78.68.68,0,0,1,.72.78v1.81h.43V23.46a1.08,1.08,0,0,0-.31-.82A1,1,0,0,0,124.32,22.37Zm9.43-.87h-.43v.92h-.37v.33h.37v1.8a.72.72,0,0,0,.75.79h.3V25h-.23c-.27,0-.4-.16-.4-.43V22.75h.63v-.33h-.63Zm-27.84,1.27v-.36h-.43v2.93h.43v-1.8a.72.72,0,0,1,.7-.79.62.62,0,0,1,.51.21l.31-.32a.9.9,0,0,0-.7-.27A1,1,0,0,0,105.91,22.77Zm22.4,0a.94.94,0,0,0-.83-.38,1,1,0,0,0-.71.26,1.74,1.74,0,0,0-.36,1.24,1.73,1.73,0,0,0,.36,1.24,1,1,0,0,0,.71.26,1,1,0,0,0,.83-.39v.35h.42V21.09h-.43ZM127.58,25c-.64,0-.74-.55-.74-1.12s.1-1.12.74-1.12.73.55.73,1.12S128.22,25,127.58,25Zm8-4a.29.29,0,0,0,0,.58.29.29,0,1,0,0-.58ZM113,25.34h.45V23.47h1.86v-.4h-1.86V21.5h2.18v-.4H113Zm-4-3c-.75,0-1.2.55-1.2,1.5s.51,1.5,1.28,1.5a1.34,1.34,0,0,0,1.07-.45l-.29-.26a1,1,0,0,1-.77.33c-.56,0-.87-.37-.87-1h2v-.2C110.18,22.92,109.74,22.37,109,22.37Zm-.78,1.29a1.22,1.22,0,0,1,.09-.49.75.75,0,0,1,1.37,0,1.3,1.3,0,0,1,.09.49Zm9.1-1.3a1.16,1.16,0,0,0-.84.34,1.58,1.58,0,0,0-.36,1.17,1.58,1.58,0,0,0,.36,1.17,1.22,1.22,0,0,0,1.68,0,1.57,1.57,0,0,0,.36-1.17,1.57,1.57,0,0,0-.36-1.17A1.15,1.15,0,0,0,117.3,22.37Zm.54,2.41a.74.74,0,0,1-.54.22.73.73,0,0,1-.53-.22,1.27,1.27,0,0,1-.24-.91,1.28,1.28,0,0,1,.24-.9.73.73,0,0,1,.53-.21.74.74,0,0,1,.54.21,1.27,1.27,0,0,1,.23.9A1.27,1.27,0,0,1,117.84,24.78Zm24.51-2.15a1,1,0,0,0-.75-.27,1.06,1.06,0,0,0-.82.36V22.4h-.43v2.93h.43V23.52a.73.73,0,1,1,1.45,0v1.81h.43V23.45A1.09,1.09,0,0,0,142.34,22.63Z"/><path class="cls-1" d="M117.95,4a25.5,25.5,0,0,0,6.79,3.79l.61-1a20.27,20.27,0,0,1-6.85-3.48c-.09-.08.2-.3.27-.42l-.83-.43c-1.34,1.89-5.11,4-7.07,4.56l.61.94A23.86,23.86,0,0,0,117.95,4Zm6.56,7.36.46-.94h-6.36V8.09h3.65l.45-.95h-8.56l-.46.95h4v2.32h-6l-.46.94h6.45V16h-2.66l-.87-3.55h-.9l.87,3.55h-2.26l-.45.94h12.88l.46-.94h-2.52l.87-3.55h-.9L121.36,16h-2.75V11.35Z"/><path class="cls-1" d="M135.75,3.09a1.05,1.05,0,0,1,.17-.2l-.76-.42c-1.18,1.38-3.46,2.63-7.07,3.46l.36.9a18.23,18.23,0,0,0,2.17-.76h9.44a18.91,18.91,0,0,0,2.2.67l.37-.9A18.85,18.85,0,0,1,135.75,3.09Zm-3.11,2.13a12.34,12.34,0,0,0,2.53-1.54c.91.55,1.87,1.07,2.85,1.54ZM141.11,7H129.4c-.07,0-.11,0-.12.13v4c0,.1,0,.15.12.15h11.71c.09,0,.14,0,.14-.15v-4C141.25,7.07,141.2,7,141.11,7Zm-6.24,3.27h-4.64s0,0,0,0V8s0,0,0,0h1.47l.46,1.93h.92L132.61,8h2.25Zm5.47-.05s0,0,0,0h-4.5V8H138l-.46,1.93h.92L139,8h1.33s0,0,0,0Zm-10,7.21.92-.41h8.15v.41l.92-.41V12.2h-10Zm.92-4.39h8.15v1h-8.15Zm0,2h8.15v1.09h-8.15Z"/><path class="cls-1" d="M9.08,1.37c.16.27.48.09.56.45a5.25,5.25,0,0,1,1,.93c0,.4-.28.53-.44.8a2.17,2.17,0,0,1-1-.27c-.2,0-.48-.18-.6.13-.32,0,0-.62-.44-.45-.16,0,0-.31-.12-.45-.28-.27-.56-.49-.85-.76.08-.13,0-.36.24-.36s.48-.13.76-.13Z"/><path class="cls-1" d="M8.28,6.68c.16.09.32,0,.36.22s-.2.22-.08.36c.12-.18.28.13.32-.09.12.27.32.31.4.58.12,0,.16-.13.2-.22.24.31-.12.63,0,1a1.73,1.73,0,0,0-.36.85.71.71,0,0,1,.08.31c-.32.62-.12,1.38-.24,2,.08.22-.08.54.16.76,0,.36.2.58.4.8s.6.09.89.27c.36,0,.64-.4.93-.71a.78.78,0,0,0,.56-.4c.12-.4.64-.44.84-.84s.64-.54.64-.94a4,4,0,0,0,.64-1c.32-.31.44-.85.76-1.12,0-.27.24-.54.08-.8s.16-.27.24-.4c.56,0,1,.31,1.49.31.24.27.28.58.48.85v.27a7.61,7.61,0,0,1-1.37,1.29,3.8,3.8,0,0,1-1.21,1,4.42,4.42,0,0,1-1.25,1.12c-.32,0-.4.31-.68.45s-.52.13-.6.45a.78.78,0,0,0-.4.71c0,.4.44.58.32.94.12.18.24.44.52.44.12.22.32.49.6.49.36.62,1,.67,1.57,1,.36-.09.44.54.85.4.16.4.6.13.89.36.16,0,.36-.27.56-.09s.69.13,1,.45c.24-.09.32.27.52.18s.44-.09.64-.09c0,.22-.12.54.12.63.32-.09.6.13.84.31.16.4.64.22.93.4a6.24,6.24,0,0,0,1.29.09c.2.31.85.31.64.8-.08.27-.48.18-.48.49-.36.22-.81.13-1.17.22-.44-.31-.92.09-1.37.18-.2,0-.4.13-.64.09-.44.4-1.13.09-1.65.4-.24-.18-.52.22-.68-.13-.32-.13-.44-.49-.64-.76L15.41,20a.38.38,0,0,0,0-.18c-.08,0-.16.09-.2,0l0,0c-.28,0-.4-.49-.72-.4a.83.83,0,0,0-.4-.44.28.28,0,0,0-.28,0c-.32-.31-.52-.76-.93-1,0-.22-.2-.27-.32-.4-.4-.31-.44-1.11-1-1.07,0-.4-.52-.49-.64-.89-.28-.36-.64-.49-.81-.89-.28-.22-.6-.31-.81-.62s-.36.31-.56.44c0,.36-.12.8.08,1.16,0,.31-.32.58-.08.89a4.85,4.85,0,0,1-.2,1.83,2.57,2.57,0,0,1,0,.8c0,.4-.24.76,0,1.11-.08.4.28.71.12,1.16.08.44-.08.89,0,1.34-.2.67.08,1.47-.12,2.23a1.09,1.09,0,0,1-.36.49,3.2,3.2,0,0,0-.4-.85,3.2,3.2,0,0,0-.28-1.07c0-.53,0-1.11,0-1.6.24-.45,0-1,.08-1.51.4-.49-.28-.8,0-1.29-.08-.13,0-.27-.08-.36a3.22,3.22,0,0,0,0-1.52c.28-.31,0-.76.2-1.12-.08-.49.08-1,0-1.56a1.66,1.66,0,0,0,0-.89c0-.54-.52-.89-.48-1.43.36-.13.24-.54.48-.76a.59.59,0,0,1,.12-.4c.2-.62-.4-1.29,0-1.83.16-.4-.2-.67-.32-1-.4-.18-.89-.49-1.29-.13-.48,0-.84-.36-1.29-.49.08-.27.36-.4.6-.54.52,0,1-.31,1.57-.09a11.35,11.35,0,0,1,1-.58Z"/><path class="cls-1" d="M5.19,12.07c.2,0,.2.31.32.45s-.12.36,0,.53c-.36.27-.2.8-.56,1.07a2.05,2.05,0,0,1-.56,1.25,1.74,1.74,0,0,0-.28.62c-.2.67-.8,1.11-.84,1.83,0,.27-.24.44-.28.71-.6.18-.88.85-1.37,1.25a5.59,5.59,0,0,0-1,1c-.2,0-.52.22-.6,0,.32-.45.93-.54,1.09-1.07.24-.27.72-.54.68-1a10.42,10.42,0,0,0,1.17-2.1,1.91,1.91,0,0,0,.44-1.11c.16-.09.08-.22.12-.31a3.78,3.78,0,0,0,.89-1.87c0-.18.12-.44,0-.62-.36-.18-.72.13-1,.27-.08.36-.52.36-.68.67-.36,0-.6.45-1,.45a.6.6,0,0,1-.48,0c-.08-.09-.24-.18-.24-.31s.4-.36.56-.58a4.32,4.32,0,0,0,1.57-.76c.44,0,.8-.45,1.29-.31.2-.09.32.09.52.09S5.06,12,5.19,12.07Z"/><path class="cls-1" d="M51.4,11.33a1.42,1.42,0,0,1-.41-.39c-.19.07-.32-.12-.44-.27-.23.07-.32-.23-.48-.35-.19.08-.35-.12-.48-.27h-.29c-.26,0-.29-.42-.54-.39-.16-.23-.44,0-.57-.27-.19,0-.16-.27-.35-.23-.13-.12-.22-.12-.32-.23-.16.15-.35-.08-.48-.16a.17.17,0,0,1-.19,0c-.06-.42-.35,0-.48-.31.13-.54-.41-.35-.5-.66-.25-.08-.32-.39-.54-.54s-.32-.39-.57-.5c-.16,0-.32-.16-.38-.31-.35-.12-.32-.58-.67-.66s-.38-.46-.6-.54c-.16-.31-.51-.2-.57-.54-.22,0-.31-.35-.44-.5-.1,0-.13,0-.16-.08,0-.31-.06-.73.2-.92a7.88,7.88,0,0,0,.1-.81,8.5,8.5,0,0,1,.29-1,.64.64,0,0,1,.07-.54,3.53,3.53,0,0,1-.06-.58c-.16,0-.28-.16-.41-.27-.19.19-.38,0-.57,0-.16.19-.38.11-.57.27s-.26.19-.19.34c.35.39.15,1,.21,1.5a.41.41,0,0,0-.07.38c-.13.27,0,.58-.07.88s-.07.61-.2.88c0,.38-.23.61-.29.92-.29.23,0,.69-.26.92.06.23-.13.35-.13.54a10.06,10.06,0,0,1-.39,1.42c0,.23-.16.42-.2.61,0,.42-.39.61-.39,1-.29.46-.55.92-.81,1.38l.13.12v-.12c.06,0,.06,0,.13,0a8.89,8.89,0,0,0,1-1.26,9.45,9.45,0,0,0,1.32-2.57c.35-.42.13-1.11.52-1.5,0-.23.26-.34.23-.61.06-.12.16-.27.29-.31s0,.15,0,.23l.13.08c.13-.23.22.08.38,0s.1.19.13.27c.38.43.63.81,1,1.24a1.83,1.83,0,0,1,.54.93.42.42,0,0,1,.28.31c.13-.08.16.19.32.19s.19.58.51.58c0,.27.35.31.25.62s.38.31.41.62c.25-.08.25.35.44.39.13.27.38.23.54.47s.32,0,.32.2a4.88,4.88,0,0,0,.6.58c.35,0,.51.54.82.62s.64,0,.93-.07c.13-.15.25.16.38-.11.19-.08.25.23.41.31v-.23c0-.15.13-.07.22-.07.13-.23.32.12.42-.27.22,0,.42-.34.61-.23Z"/><path class="cls-1" d="M28.75,9.33c.06.15.16-.08.29,0,.38-.27,1,.08,1.24-.5.1-.08.25,0,.32-.12.6-.27,1.24-.38,1.85-.69.19.08.32-.23.48-.12.22-.31.54-.27.83-.31.1-.08.26,0,.35-.15s.06-.08.16-.08c.13-.27.29,0,.48-.08s.57-.19.86-.35a2.93,2.93,0,0,1,.48-.27c.19-.27-.16-.34-.22-.54-.22,0-.38-.31-.61-.27-.06,0-.1.11-.13,0a.91.91,0,0,0-.76.35c-.1-.08-.26,0-.35.11s-.35.19-.57.15a.47.47,0,0,1-.1-.34c-.25-.46,0-.92-.19-1.42.16-.19,0-.42.16-.62s.32,0,.48-.12c.06.08.13.08.22.08.35-.31.83,0,1.15-.38.38,0,.57-.35.89-.5.22,0,.29-.23.29-.46s-.45-.12-.67-.27a3.86,3.86,0,0,1-.61.19c-.22.08-.29.42-.51.5s-.32.23-.51.35-.19.08-.29.12-.35.12-.48-.08-.22-.23-.16-.42a2.38,2.38,0,0,1-.06-.5c-.1-.15,0-.42-.16-.46s-.38-.46-.64-.5c-.22-.31-.61,0-.83-.27a.63.63,0,0,0,0,.42c.19.27.45.31.67.54a1,1,0,0,1,.06.62c.13.08.06.27.09.38-.13.23.19.31.06.5a4,4,0,0,1,0,.61c-.06.11.1.35-.06.46a.17.17,0,0,0,0,.12c.06.58,0,1.23,0,1.88-.1.15-.25,0-.35.15-.13-.08-.22.15-.38.12-.22.19-.57.16-.8.35-.09,0-.09-.11-.16-.15v.08s-.1.11-.13,0a.12.12,0,0,1,.06-.15l-.1-.16c-.13-.42-.13-.81-.22-1.23a3.35,3.35,0,0,1-.48-1.11.59.59,0,0,0-.45-.35c-.06.08-.16.12-.16.23s0,.46.16.61a3.28,3.28,0,0,1,.1.81c.26.23-.06.65.19.85,0,.35.1.77-.22.89-.09.31-.41.19-.54.39-.13-.12-.19.08-.32,0a2.86,2.86,0,0,0-.41.5,1.47,1.47,0,0,0,.32.85C28.65,9.76,28.49,9.33,28.75,9.33Z"/><path class="cls-1" d="M36.27,10.68c-.29,0-.54-.27-.8,0a3.93,3.93,0,0,1-1,0c-.06-.08-.16-.11-.13-.23a.67.67,0,0,0,.16-.5c0-.08-.1-.15,0-.23-.1,0,0-.19-.13-.19-.13-.31-.45-.19-.64-.38a7.5,7.5,0,0,0,0,.85.48.48,0,0,1-.1.46c.06.31-.13.46-.22.69,0,.73-.61,1.23-.83,1.89l0,0a2.55,2.55,0,0,0,1.08-1.12,1.55,1.55,0,0,0,.51-.85c.06-.11,0-.31.16-.34a1.56,1.56,0,0,1,.67.23c.06.42.45.35.7.54s.41,0,.61.23c.16-.08.16-.35.22-.54S36.27,10.94,36.27,10.68Z"/><path class="cls-1" d="M28.72,13.8l-.13.08,0,.08c.29-.31.7-.38,1-.77.1-.23.22-.5.45-.57a.93.93,0,0,0,.54.19c.22.31.64.35.76.73.1.08.22.19.32.12a.5.5,0,0,0,.1-.42,1.87,1.87,0,0,0-.61-.58,3.48,3.48,0,0,0-.89-.23c-.16-.38.13-.69.19-1s.35-.85.22-1.27c-.06-.27-.25-.31-.41-.42-.06,0-.13.08-.13.15s-.19.38-.13.58c-.22.23,0,.54-.19.77-.16,0-.06.31-.22.35,0,.19-.1.31-.19.46s-.16.23-.1.5c-.22.23-.22.54-.41.77A1.23,1.23,0,0,0,28.72,13.8Z"/><path class="cls-1" d="M42.18,12.06a5.68,5.68,0,0,0-.73.31s-.08,0-.08,0c-.24.27-.65.27-.93.42,0,.12.12.19.12.31a1.64,1.64,0,0,0,1.14.19,1,1,0,0,0,.85,0A8.77,8.77,0,0,0,44,13.1c.12-.31.53-.54.81-.73s0-.42.2-.5c-.24-.15-.49-.19-.65-.42a1,1,0,0,0-.57,0c-.24-.08-.41.15-.65.11s-.37.27-.61.19C42.55,12.06,42.26,11.87,42.18,12.06Z"/><path class="cls-1" d="M34.58,13.6c-.13,0-.19-.11-.32-.08a1.12,1.12,0,0,1-.7-.08c-.19.19-.38,0-.64-.08-.26.12-.16.5-.41.65-.1.31-.41.38-.61.5-.25.5-.8.27-1.11.66a2.52,2.52,0,0,0-1,.15c-.16,0-.16.12-.26.19-.07-.12-.13,0-.22-.08-.19.27-.45,0-.64.08a.25.25,0,0,0-.16.27c.19,0,.06.23.22.27.35.19.67-.12,1-.23.35-.27.76-.23,1.12-.46.22.08.45-.23.67-.12.25-.27.64-.23.89-.42s.64-.19.92-.38c.32.23.45-.31.73-.23.16.23.22-.19.41,0,.1,0,.13-.19.19-.27S34.77,13.6,34.58,13.6Z"/><path class="cls-1" d="M34.15,15.83a.8.8,0,0,0-.29-.08c-.16.15.1.31,0,.46-.22.15-.06.5-.29.65s-.09.31-.06.46a4.51,4.51,0,0,1-.7,1.58c0,.08,0,.31.1.27A3.8,3.8,0,0,0,33.86,18c.06-.54.48-1,.38-1.5C34.53,16.29,34.18,16.1,34.15,15.83Z"/><path class="cls-1" d="M31.53,20.18c.13.12.35,0,.51,0,.45-.27-.32-.39-.19-.77a5.72,5.72,0,0,0-1-.61c-.13-.31.16-.62.16-1,.19-.19.1-.54.13-.85-.13-.12-.06-.35-.26-.38,0-.27-.29-.23-.45-.35,0,.46,0,1,0,1.46-.16.12-.1.31-.13.5a6,6,0,0,1-.57,1.08c-.16.31-.45.42-.54.77,0,0,.06.15.13.11a2.87,2.87,0,0,0,.64-.42c.32-.19.67-1,1.08-.61a.44.44,0,0,1,.22.46C31.37,19.76,31.37,20,31.53,20.18Z"/><path class="cls-1" d="M47.44,15.59A2.42,2.42,0,0,1,47,15.4c-.13-.15-.38-.38-.6-.27,0,.23-.32.15-.22.38a3.63,3.63,0,0,0-.19.73l0,0c-.29.19-.26.43-.41.69.06.31-.16.46-.29.66s0,.27-.13.35c0,.31-.22.5-.26.73l0,0c.16-.19.41-.11.51-.42a6.67,6.67,0,0,1,.92-.77c.19,0,.19-.39.41-.46s.32-.23.45-.35.19-.58.44-.73C47.63,15.78,47.53,15.7,47.44,15.59Z"/><path class="cls-1" d="M42.66,17c.35.1.45-.26.8-.2.25-.16.7-.13,1-.26.6-.23,1.3-.36,1.95-.55a.94.94,0,0,0,.3-.26c-.8,0-1.6,0-2.4.07-1,0-2,.29-3,.36a5.57,5.57,0,0,1-1.8-.13c-.2,0-.3.2-.4.29s.05.32.1.49c.3.16-.05.33.1.52.45.1.25.42.45.62s.35-.13.6-.13A8.4,8.4,0,0,1,42.31,17a.17.17,0,0,1,.2.07C42.61,17.1,42.61,17,42.66,17Z"/><path class="cls-1" d="M35.69,17.68c-.1,0-.22-.12-.29,0s-.16-.08-.22-.15a.4.4,0,0,1-.38-.19c-.16,0-.29-.31-.45-.15.13.19.32.31.35.54.19.23.29.65.64.65.25.15.25-.35.51-.35A.42.42,0,0,0,35.69,17.68Z"/><path class="cls-1" d="M43.72,20.43c-.1-.43.09-1.07-.29-1.38,0-.17-.13-.26-.13-.43s-.16-.17-.16-.35c-.25-.13-.22-.6-.51-.69a7.88,7.88,0,0,0,0,.86,18,18,0,0,1,.07,1.85,1,1,0,0,0,0,.43c-.13.73-.13,1.46-.29,2.15-.06.47-.35,1.16.06,1.55,0,0,0,0-.06,0a3.11,3.11,0,0,0,.77,1c.09,0,.19,0,.29,0a1.55,1.55,0,0,0,.13-.6,8.32,8.32,0,0,0,.16-2c0-.47,0-1,.06-1.51C43.6,21.12,43.76,20.78,43.72,20.43Z"/><path class="cls-1" d="M37.45,18.36c-.09-.29,0-.75-.27-.95,0-.12-.11-.17-.11-.29s-.13-.12-.13-.23c-.2-.08-.19-.41-.42-.46a4.88,4.88,0,0,0,0,.6,11.22,11.22,0,0,1,.11,1.28.61.61,0,0,0,0,.3c-.08.51-.05,1-.15,1.51,0,.33-.24.82.1,1.07,0,0,0,0,0,0a2.2,2.2,0,0,0,.63.69.58.58,0,0,0,.22,0,1,1,0,0,0,.08-.42,5.21,5.21,0,0,0,.06-1.41c0-.33,0-.69,0-1C37.37,18.85,37.48,18.6,37.45,18.36Z"/><path class="cls-1" d="M37.65,20.27c.08-.76-.39-1.51-.23-2.29-.18-.27-.05-.5,0-.75a1.51,1.51,0,0,1,0-1.17c-.19-.24.07-.54,0-.74s0-.32,0-.49c.19-.16,0-.32.07-.54s.15-.13.05-.25c.19-.35,0-.81.1-1.22-.16-.16-.11-.41-.32-.52l-.09,0c0,.26-.29.23-.4.4-.24,0-.32.23-.48.39.21.14-.2.19,0,.33,0,.09,0,.23,0,.39.27.22,0,.49.13.71a8,8,0,0,0,0,1,6.23,6.23,0,0,0,0,1.24c.31.19,0,.46,0,.69l0,.62c-.07.54.13,1.07,0,1.6-.09,0-.19-.18-.27,0-.1,0-.22.08-.38.08-.16.31-.48.12-.67.27-.34.08-1.95.25-2.26.37l-.84.16a6.25,6.25,0,0,0-1.21.27c-.13.35-.45.12-.67.15l-.61.16c-.54,0-1,.35-1.56.35A.27.27,0,0,1,28,21.3a3.5,3.5,0,0,0,0-1c.06-.61-.13-1.08,0-1.65a8.1,8.1,0,0,0,0-1.77,4.68,4.68,0,0,0,.06-1c-.13-.31.13-.54,0-.89a1.85,1.85,0,0,0-.45-1.5c-.06-.19-.26-.23-.35-.42-.19,0-.16-.35-.35-.35a.17.17,0,0,0-.06.19,4.73,4.73,0,0,1,.35,1c-.13.62.29,1.19,0,1.81.13.23,0,.42.1.65a8.65,8.65,0,0,0,0,1.58,4.53,4.53,0,0,0,0,1.31,5.59,5.59,0,0,0,0,1.46,1,1,0,0,0,0,.69c0,.23-.29,0-.26.27a2.39,2.39,0,0,0,.32,1c.19,0,.38.35.54,0,.76-.08,1.4-.69,2.2-.69.22-.23.48-.15.73-.15a1.51,1.51,0,0,1,1.15-.23,6.59,6.59,0,0,1,1.19-.3h0c.17,0,1.5-.1,1.62-.15s.32,0,.48-.12c.19.15.32,0,.54,0s.16.12.25,0a1.92,1.92,0,0,0,.92-.12,1.66,1.66,0,0,0,.62-.12C37.54,20.61,38,20.5,37.65,20.27Z"/></g></g></svg>