<svg xmlns="http://www.w3.org/2000/svg" viewBox="0 0 30 29.99"><defs><style>.cls-1{fill:#fff;}</style></defs><title>資產 4</title><g id="圖層_2" data-name="圖層 2"><g id="圖層_1-2" data-name="圖層 1"><path class="cls-1" d="M15,0A15,15,0,1,0,30,15,15,15,0,0,0,15,0Zm7.83,12.29A9.83,9.83,0,0,1,7.7,21a7,7,0,0,0,5.12-1.43,3.46,3.46,0,0,1-3.23-2.4,3.46,3.46,0,0,0,1.56-.06A3.46,3.46,0,0,1,8.37,13.7a3.45,3.45,0,0,0,1.57.43A3.46,3.46,0,0,1,8.86,9.52,9.81,9.81,0,0,0,16,13.13,3.46,3.46,0,0,1,21.88,10a6.93,6.93,0,0,0,2.19-.84A3.46,3.46,0,0,1,22.56,11a6.91,6.91,0,0,0,2-.55A7,7,0,0,1,22.82,12.29Z"/></g></g></svg>