<svg xmlns="http://www.w3.org/2000/svg" viewBox="0 0 30 29.99"><defs><style>.cls-1{fill:#fff;}</style></defs><title>資產 5</title><g id="圖層_2" data-name="圖層 2"><g id="圖層_1-2" data-name="圖層 1"><path class="cls-1" d="M21.77,10.19a2.87,2.87,0,0,0-1.65-1.64,4.8,4.8,0,0,0-1.61-.3c-.91,0-1.19,0-3.5,0s-2.59,0-3.5.05a4.8,4.8,0,0,0-1.61.3A2.87,2.87,0,0,0,8.25,10.2,4.8,4.8,0,0,0,8,11.81c0,.91,0,1.19,0,3.5s0,2.59.05,3.5a4.8,4.8,0,0,0,.3,1.61A2.87,2.87,0,0,0,9.9,22.07a4.8,4.8,0,0,0,1.61.3c.91,0,1.19,0,3.5,0s2.59,0,3.5-.05a4.8,4.8,0,0,0,1.61-.3,2.87,2.87,0,0,0,1.65-1.65,4.8,4.8,0,0,0,.3-1.61c0-.91,0-1.19,0-3.5s0-2.59-.05-3.5A4.8,4.8,0,0,0,21.77,10.19ZM15,19.76a4.45,4.45,0,1,1,4.45-4.45A4.45,4.45,0,0,1,15,19.76Zm4.63-8a1,1,0,1,1,1-1A1,1,0,0,1,19.64,11.72Z"/><circle class="cls-1" cx="15.02" cy="15.31" r="2.89"/><path class="cls-1" d="M15,0A15,15,0,1,0,30,15,15,15,0,0,0,15,0Zm8.64,18.88a6.36,6.36,0,0,1-.4,2.1,4.43,4.43,0,0,1-2.54,2.54,6.37,6.37,0,0,1-2.1.4c-.92,0-1.22.05-3.58.05s-2.65,0-3.58-.05a6.37,6.37,0,0,1-2.11-.4A4.43,4.43,0,0,1,6.8,21a6.36,6.36,0,0,1-.4-2.1c0-.92-.05-1.22-.05-3.57s0-2.65.05-3.57a6.36,6.36,0,0,1,.4-2.1A4.43,4.43,0,0,1,9.33,7.1a6.37,6.37,0,0,1,2.1-.4c.92,0,1.22-.05,3.58-.05s2.65,0,3.58.05a6.37,6.37,0,0,1,2.11.4,4.43,4.43,0,0,1,2.54,2.53,6.36,6.36,0,0,1,.4,2.1c0,.92.05,1.22.05,3.57S23.68,18,23.64,18.88Z"/></g></g></svg>