<svg xmlns="http://www.w3.org/2000/svg" viewBox="0 0 30 29.99"><defs><style>.cls-1{fill:#fff;}</style></defs><title>資產 6</title><g id="圖層_2" data-name="圖層 2"><g id="圖層_1-2" data-name="圖層 1"><path class="cls-1" d="M15,0A15,15,0,1,0,30,15,15,15,0,0,0,15,0Zm8.13,21.63c-.48,0-1,0-1.45,0h-4c-.37,0-.38,0-.39-.4s0-.77,0-1.16c0-.22.09-.3.3-.29s.49,0,.72,0,.36-.08.36-.34c0-1.49,0-3,0-4.47,0-1.12,0-2.24,0-3.36a3.52,3.52,0,0,0-.05-.43h-.08a.82.82,0,0,0-.09.16l-1.1,3.92c-.26.92-.51,1.84-.77,2.75s-.61,2.11-.93,3.16c-.12.4-.18.44-.59.44H13.5c-.2,0-.3-.08-.35-.29-.18-.71-.38-1.42-.57-2.12L12,17.14l-.53-1.93c-.2-.71-.4-1.43-.6-2.14-.1-.36-.17-.73-.26-1.1,0-.05,0-.1-.15-.14a4.43,4.43,0,0,0-.07.55c0,2.37,0,4.74,0,7.1,0,.22.09.32.31.31h.55c.23,0,.32.09.32.31,0,.43,0,.85,0,1.28,0,.19-.1.27-.29.27H6.86c-.24,0-.32-.09-.31-.33,0-.41,0-.81,0-1.22,0-.21.07-.31.28-.3h.38a.66.66,0,0,0,.72-.72c0-.38,0-.75,0-1.13q0-3.32,0-6.64c0-.68-.22-.89-.89-.86-.47,0-.48,0-.48-.47s0-.87,0-1.3c0-.22.07-.29.29-.29H12.4c.3,0,.42.12.49.4.36,1.4.75,2.79,1.12,4.19.24.9.47,1.79.7,2.69,0,.1.07.19.1.28h.08A1.58,1.58,0,0,0,15,15.7q.42-1.55.83-3.1c.26-1,.51-2,.77-3a8.49,8.49,0,0,1,.3-1,.5.5,0,0,1,.38-.23c.48,0,1,0,1.45,0h4.44c.2,0,.28.09.27.28,0,.5,0,1,0,1.51,0,.22-.09.3-.3.29h-.41a.63.63,0,0,0-.67.67c0,.47,0,.95,0,1.42q0,3.2,0,6.41c0,.64.21.86.84.86h.2c.23,0,.34.08.33.32,0,.4,0,.79,0,1.19S23.38,21.63,23.12,21.63Z"/></g></g></svg>