<svg xmlns="http://www.w3.org/2000/svg" viewBox="0 0 30 29.99"><defs><style>.cls-1{fill:#fff;}</style></defs><title>資產 7</title><g id="圖層_2" data-name="圖層 2"><g id="圖層_1-2" data-name="圖層 1"><path class="cls-1" d="M15,0A15,15,0,1,0,30,15,15,15,0,0,0,15,0ZM9.76,18.77a4.15,4.15,0,0,1-4.18-4.12,4,4,0,0,1,0-.55,4.2,4.2,0,0,1,7.94-1.17,4.06,4.06,0,0,1,.38,1.72A4.15,4.15,0,0,1,9.76,18.77Zm10.49,0a4.15,4.15,0,0,1-4.18-4.12A4.06,4.06,0,0,1,16.43,13a4.19,4.19,0,0,1,8,1.36c0,.11,0,.22,0,.33A4.15,4.15,0,0,1,20.25,18.77Z"/></g></g></svg>