<svg xmlns="http://www.w3.org/2000/svg" viewBox="0 0 40.89 40.88"><title>資產 3</title><g id="圖層_2" data-name="圖層 2"><g id="圖層_1-2" data-name="圖層 1"><path d="M29.68,13.9a3.91,3.91,0,0,0-2.24-2.24,6.54,6.54,0,0,0-2.2-.41c-1.25-.06-1.62-.07-4.78-.07s-3.53,0-4.78.07a6.54,6.54,0,0,0-2.19.41,3.91,3.91,0,0,0-2.24,2.24,6.54,6.54,0,0,0-.41,2.19c-.06,1.25-.07,1.62-.07,4.78s0,3.53.07,4.78a6.54,6.54,0,0,0,.41,2.19,3.91,3.91,0,0,0,2.24,2.24,6.54,6.54,0,0,0,2.2.41c1.25.06,1.62.07,4.78.07s3.53,0,4.78-.07a6.54,6.54,0,0,0,2.19-.41,3.91,3.91,0,0,0,2.24-2.24,6.54,6.54,0,0,0,.41-2.19c.06-1.25.07-1.62.07-4.78s0-3.53-.07-4.78A6.54,6.54,0,0,0,29.68,13.9Zm-9.21,13a6.07,6.07,0,1,1,6.07-6.07A6.07,6.07,0,0,1,20.47,26.94Zm6.3-11a1.42,1.42,0,1,1,1.42-1.42A1.42,1.42,0,0,1,26.78,16Z"/><circle cx="20.47" cy="20.87" r="3.94"/><path d="M20.44,0A20.44,20.44,0,1,0,40.89,20.43,20.44,20.44,0,0,0,20.44,0ZM32.22,25.74a8.67,8.67,0,0,1-.55,2.87,6,6,0,0,1-3.46,3.46,8.68,8.68,0,0,1-2.87.55c-1.26.06-1.66.07-4.87.07s-3.61,0-4.87-.07a8.68,8.68,0,0,1-2.87-.55,6,6,0,0,1-3.46-3.45,8.67,8.67,0,0,1-.55-2.87c-.06-1.26-.07-1.66-.07-4.87s0-3.61.07-4.87a8.67,8.67,0,0,1,.55-2.87,6,6,0,0,1,3.46-3.46,8.68,8.68,0,0,1,2.87-.55c1.26-.06,1.66-.07,4.87-.07s3.61,0,4.87.07a8.68,8.68,0,0,1,2.87.55,6,6,0,0,1,3.46,3.45A8.67,8.67,0,0,1,32.22,16c.06,1.26.07,1.66.07,4.87S32.28,24.48,32.22,25.74Z"/></g></g></svg>