<svg xmlns="http://www.w3.org/2000/svg" viewBox="0 0 113.78 17.49"><defs><style>.cls-1{fill:#fff;}</style></defs><title>資產 1</title><g id="圖層_2" data-name="圖層 2"><g id="圖層_1-2" data-name="圖層 1"><path class="cls-1" d="M55.52,13.25a10,10,0,0,1-2.93.35,5.35,5.35,0,0,1-1.7-.28,4.36,4.36,0,0,1-2.64-2.39,5.24,5.24,0,0,1-.43-2.23,4.9,4.9,0,0,1,.38-2,4.46,4.46,0,0,1,1-1.49,5,5,0,0,1,1.51-1,5.7,5.7,0,0,1,2.15-.37,5.45,5.45,0,0,1,2.19.38,4.65,4.65,0,0,1,1.43.94,2.84,2.84,0,0,1,.86,1.26,4.08,4.08,0,0,1,.29,1.61,5.07,5.07,0,0,1-.05.72,4.94,4.94,0,0,1-.16.66H51a2.87,2.87,0,0,0,.11.64,1.38,1.38,0,0,0,.28.49A1.65,1.65,0,0,0,52,11a3,3,0,0,0,1.47.32h.12a3.67,3.67,0,0,0,.79-.07,2.11,2.11,0,0,0,.44-.14,5.77,5.77,0,0,0,.71-.33,6.13,6.13,0,0,0,.64-.48L57.65,12A6.07,6.07,0,0,1,55.52,13.25Zm-3.65-7a1.54,1.54,0,0,0-.49.52,1.88,1.88,0,0,0-.22.46,1.08,1.08,0,0,0-.07.37h3.74a2.36,2.36,0,0,0-.06-.44,1.4,1.4,0,0,0-.18-.48,1.09,1.09,0,0,0-.4-.43A2.14,2.14,0,0,0,53,5.94,2,2,0,0,0,51.87,6.25Z"/><circle class="cls-1" cx="18.62" cy="9.99" r="3.55"/><path class="cls-1" d="M34.7,7.95a3.49,3.49,0,0,0-1.86-2.22,10.72,10.72,0,0,0-3.1-.78,7.52,7.52,0,0,1-2.29-.48A.86.86,0,0,1,27,3.75V3.7a.7.7,0,0,1,.37-.57,2.9,2.9,0,0,1,1.58-.3A4.75,4.75,0,0,1,30.49,3a1.41,1.41,0,0,1,.77,1.06h2.37a.4.4,0,0,0,.4-.39h0V.55h0a.4.4,0,0,0-.4-.4H32.13l-.19.67a4.74,4.74,0,0,0-.51-.29A5.5,5.5,0,0,0,28.91,0a8.41,8.41,0,0,0-3.13.46,3.51,3.51,0,0,0-1,.68,4,4,0,0,0-1.14,2.1,4.65,4.65,0,0,0-.1,1,3.86,3.86,0,0,0,.27,1.44,3.18,3.18,0,0,0,1.66,1.74,8.14,8.14,0,0,0,1.17.4q.76.2,2.07.44l1.42.28a3.18,3.18,0,0,1,.67.27,1.09,1.09,0,0,1,.55,1,1.21,1.21,0,0,1-.64,1.09,3.26,3.26,0,0,1-1.59.32H29a2.93,2.93,0,0,1-1.42-.32,2.13,2.13,0,0,1-.93-1.28h-3a.4.4,0,0,0-.4.4v3.11a.4.4,0,0,0,.36.4h1.53l.31-1.09a4.32,4.32,0,0,0,.67.51,5.09,5.09,0,0,0,2.92.77A7.78,7.78,0,0,0,32.56,13a3.83,3.83,0,0,0,1.28-1,4.88,4.88,0,0,0,.67-1.11,4.58,4.58,0,0,0,.36-1.74A4,4,0,0,0,34.7,7.95Z"/><polygon class="cls-1" points="32.16 5.09 32.14 5.08 32.14 5.09 32.16 5.09"/><path class="cls-1" d="M7.77,13.3V10.46H9.09a.13.13,0,0,0,.13-.13V7.8a.13.13,0,0,0-.13-.13H5.21a.13.13,0,0,0-.13.13v2.53a.13.13,0,0,0,.13.13H6.34V13.3H.27A.27.27,0,0,1,0,13V10.72a.27.27,0,0,1,.27-.27h1.1a.13.13,0,0,0,.13-.13V3.27a.13.13,0,0,0-.13-.13H.27A.27.27,0,0,1,0,2.87V.55A.27.27,0,0,1,.27.28H6.34V3.13H5.21a.13.13,0,0,0-.13.13V4.89A.13.13,0,0,0,5.21,5H9.09a.13.13,0,0,0,.13-.13V3.27a.13.13,0,0,0-.13-.13H7.77V.28h6.07a.27.27,0,0,1,.27.27V2.87a.27.27,0,0,1-.27.27h-.91a.13.13,0,0,0-.13.13v7.06a.13.13,0,0,0,.13.13h.91a.27.27,0,0,1,.27.27V13a.27.27,0,0,1-.27.27Z"/><path class="cls-1" d="M36.38,7.2h0Z"/><path class="cls-1" d="M46.4,6.29a4.7,4.7,0,0,0-1.82-1.7A5.56,5.56,0,0,0,41.94,4h-.56a4.43,4.43,0,0,0-2.44.83l-.39-.78H36.42a.4.4,0,0,0-.4.4V6.8a.4.4,0,0,0,.36.4h.38v7.18h-.45a.4.4,0,0,0-.4.4v2.31a.4.4,0,0,0,.4.4h4.46V14.38H40V12.8a2.39,2.39,0,0,0,1.92.82,5.1,5.1,0,0,0,3.77-1.4,4.59,4.59,0,0,0,1.4-3.37v0A4.62,4.62,0,0,0,46.4,6.29Zm-3,4a1.57,1.57,0,0,1-1.41.63,1.56,1.56,0,0,1-1.41-.63,2.45,2.45,0,0,1-.41-1.42,2.63,2.63,0,0,1,.41-1.47,1.83,1.83,0,0,1,2.81,0,2.63,2.63,0,0,1,.41,1.47A2.45,2.45,0,0,1,43.35,10.27Z"/><path class="cls-1" d="M66.44,10.23a2.55,2.55,0,0,1-.75.44,3.45,3.45,0,0,1-1,.25l-.38,0-.53,0a4.43,4.43,0,0,1-1-.23,2.36,2.36,0,0,1-.79-.54,2,2,0,0,1-.57-1.46,2.23,2.23,0,0,1,.56-1.5,2.19,2.19,0,0,1,1.75-.64h0q1.29.13,1.31,1.17h1.91a.4.4,0,0,0,.4-.4V4.48a.4.4,0,0,0-.4-.4H66l-.38.55a2.84,2.84,0,0,0-2-.75,6,6,0,0,0-2,.29,4.77,4.77,0,0,0-2.25,1.65,4.72,4.72,0,0,0-.93,2.83v.11a4.72,4.72,0,0,0,.93,2.83,4.77,4.77,0,0,0,2.25,1.65,5.32,5.32,0,0,0,1.82.29h.36a8.24,8.24,0,0,0,2-.33A6.07,6.07,0,0,0,68,12Z"/><path class="cls-1" d="M73.95,6.31a.4.4,0,0,0,.4-.4V4.47a.4.4,0,0,0-.4-.4H72.64V.74a.4.4,0,0,0-.4-.4H69.92a29.78,29.78,0,0,1-.56,3.73h-.74a.4.4,0,0,0-.4.4V5.91a.4.4,0,0,0,.4.4h.67V10a4.61,4.61,0,0,0,.34,2,2.67,2.67,0,0,0,2.5,1.5h0a12.91,12.91,0,0,0,2.18-.35V10.85a1.08,1.08,0,0,1-.81.33h-.16a.73.73,0,0,1-.68-.54,2.85,2.85,0,0,1-.06-.73V6.31Z"/><path class="cls-1" d="M82.18,4a3.82,3.82,0,0,0-2.51,1l-.4-.92H75.91a.4.4,0,0,0-.4.4V6.81a.4.4,0,0,0,.31.39h.49v3.11h-.41a.4.4,0,0,0-.4.4V13a.4.4,0,0,0,.4.4h4.52V10.32h-.76V8.44a2,2,0,0,1,.52-1.38,1.45,1.45,0,0,1,1.1-.57h.05A4.43,4.43,0,0,1,83,7l.43-2.83A3.62,3.62,0,0,0,82.18,4Z"/><path class="cls-1" d="M94.92,10.32h-.31V4.07H91.06a.4.4,0,0,0-.4.4V6.81A.4.4,0,0,0,91,7.2h.28v2a2,2,0,0,1-.52,1.37,1.35,1.35,0,0,1-2.2,0A2,2,0,0,1,88,9.2V4.07H84.35a.4.4,0,0,0-.4.4V6.81a.4.4,0,0,0,.4.4h.31v2a4.35,4.35,0,0,0,.62,2.23A4.22,4.22,0,0,0,86.84,13a3.6,3.6,0,0,0,1.86.53H89a4,4,0,0,0,2.29-1l.4.91h3.23a.33.33,0,0,0,.33-.33V10.65A.33.33,0,0,0,94.92,10.32Z"/><path class="cls-1" d="M113.38,10.32h-.43v-2a4.76,4.76,0,0,0-.55-2.24A4.06,4.06,0,0,0,111,4.5,3.13,3.13,0,0,0,109.26,4H109a3.9,3.9,0,0,0-2.22,1,5.66,5.66,0,0,0-.71.82,3.56,3.56,0,0,0-2.36-1.76A3.37,3.37,0,0,0,103,4a3.76,3.76,0,0,0-2.44,1l-.4-.92h-3.3a.4.4,0,0,0-.4.4V6.78a.4.4,0,0,0,.4.4h.32l0,0v3.12h-.45a.4.4,0,0,0-.4.4V13a.4.4,0,0,0,.4.4h4.65V10.32h-.84v-2A2.26,2.26,0,0,1,101,7a1.16,1.16,0,0,1,2,0,2.25,2.25,0,0,1,.42,1.35v5.12h3.77a.41.41,0,0,0,.41-.41V10.71a.41.41,0,0,0-.3-.39l-.11,0h-.42v-2A2.3,2.3,0,0,1,107.18,7a1.16,1.16,0,0,1,2,0,2.2,2.2,0,0,1,.41,1.35v5.12h3.79a.4.4,0,0,0,.4-.4V10.72A.4.4,0,0,0,113.38,10.32Z"/></g></g></svg>