<svg xmlns="http://www.w3.org/2000/svg" viewBox="0 0 141 62"><defs><style>.cls-1{fill:#fff;}</style></defs><title>資產 7</title><g id="圖層_2" data-name="圖層 2"><g id="圖層_1-2" data-name="圖層 1"><rect width="141" height="62"/><path class="cls-1" d="M25,32.29h2.43v-5h4V42H29v2.45h8V42H34.44V27.28h4v5H40.9V24.83H25m66.53,2.46H94.3v12.8L85.7,24.83H79v2.45h2.81V42H76.89L71.4,27h2.45V24.83h-10V27h2.37L60.83,42H56.34l-3.47-7.14q4-1,4-4.9a5,5,0,0,0-1-3.11,4.46,4.46,0,0,0-2.43-1.64,16.35,16.35,0,0,0-4-.38h-8v2.45h2.69V42H41.6v2.45h8.17V42H47.25V35.28H50l4.47,9.17h11.7V42H63.8l1.5-4.44h7.07L73.83,42H71.39v2.46H87V42H84.23V27.9l9.42,16.75h3V27.28h2.89V24.83H91.53v2.45Zm-42,5.55H47.25V27.28h2.51a11.17,11.17,0,0,1,2.31.18,2.24,2.24,0,0,1,1.27.84,2.56,2.56,0,0,1,.51,1.62,2.92,2.92,0,0,1-.51,1.8,2.42,2.42,0,0,1-1.31.89,10.41,10.41,0,0,1-2.48.22M66,35.26,68.75,27H69l2.61,8.21H66Zm47.19.57a5.08,5.08,0,0,0-2-2,20.83,20.83,0,0,0-3.77-1.26,22.83,22.83,0,0,1-2.67-.79,2.56,2.56,0,0,1-1.11-.88,2.32,2.32,0,0,1,.42-3.16,3.68,3.68,0,0,1,2.47-.74,4.74,4.74,0,0,1,4.16,2.27v1.37h2.4v-6h-2.4V26a7.11,7.11,0,0,0-4.37-1.52A6,6,0,0,0,102.22,26a5,5,0,0,0-1.64,3.94,4.86,4.86,0,0,0,2.78,4.55,22.47,22.47,0,0,0,3.91,1.34A9.92,9.92,0,0,1,110.35,37a2.35,2.35,0,0,1,.82,2,3,3,0,0,1-1,2.33,3.59,3.59,0,0,1-2.46.89q-2.85,0-4.61-3.2V37.32h-2.46v7.12h2.46V42.83a7,7,0,0,0,4.82,1.93,6.21,6.21,0,0,0,4.38-1.63A5.4,5.4,0,0,0,114.08,39a5.88,5.88,0,0,0-.85-3.15M41.84,11.65h1.23v2.78H41.84Zm8.66,0h2v2.78h-2Zm8.66,0h2.79v2.78H59.15Zm8.66,0h3.57v2.78H67.81Zm8.66,0h4.35v2.78H76.47Zm8.66,0h5.13v2.78H85.13Zm8.66,0H99.7v2.78H93.78Z"/></g></g></svg>