<svg xmlns="http://www.w3.org/2000/svg" xmlns:xlink="http://www.w3.org/1999/xlink" viewBox="0 0 77 77"><defs><style>.cls-1,.cls-4{fill:none;}.cls-2{clip-path:url(#clip-path);}.cls-3{fill:#fff;}.cls-4{stroke:#fff;stroke-miterlimit:10;}</style><clipPath id="clip-path"><circle class="cls-1" cx="38.5" cy="38.5" r="31.58"/></clipPath></defs><title>資產 5</title><g id="圖層_2" data-name="圖層 2"><g id="圖層_1-2" data-name="圖層 1"><g class="cls-2"><path class="cls-3" d="M61,46.23C61,40,54.48,35,46.38,35S31.71,40,31.71,46.23s6.57,11.24,14.66,11.24a18.77,18.77,0,0,0,4-.43l8.56,3.31-1.11-7.11A9.72,9.72,0,0,0,61,46.23Z"/><path class="cls-3" d="M33.79,35.39a20.71,20.71,0,0,1,12.59-4,20.73,20.73,0,0,1,12.59,4q.56.43,1.07.9A14.33,14.33,0,0,0,61,31C61,21,50.4,12.81,37.27,12.81S13.5,21,13.5,31a15.76,15.76,0,0,0,5.19,11.37L16.89,53.93l11.61-4.48a12.38,12.38,0,0,1-.42-3.22,12.59,12.59,0,0,1,1.6-6.14A15.2,15.2,0,0,1,33.79,35.39Z"/></g><circle class="cls-4" cx="38.5" cy="38.5" r="38"/></g></g></svg>