<svg xmlns="http://www.w3.org/2000/svg" viewBox="0 0 236 36.28"><defs><style>.cls-1{fill:#232222;}.cls-2{fill:#26cad3;}</style></defs><title>資產 6</title><g id="圖層_2" data-name="圖層 2"><g id="圖層_1-2" data-name="圖層 1"><path class="cls-1" d="M115.17,27.48a20.73,20.73,0,0,1-6.08.73,11.09,11.09,0,0,1-3.52-.59,9,9,0,0,1-5.47-4.95,10.88,10.88,0,0,1-.9-4.64,10.17,10.17,0,0,1,.8-4.11,9.25,9.25,0,0,1,2.12-3.08,10.34,10.34,0,0,1,3.13-2,11.81,11.81,0,0,1,4.47-.78,11.3,11.3,0,0,1,4.55.8,9.64,9.64,0,0,1,3,2A5.89,5.89,0,0,1,119,13.42a8.45,8.45,0,0,1,.61,3.33,10.51,10.51,0,0,1-.1,1.49,10.24,10.24,0,0,1-.34,1.36H105.87a6,6,0,0,0,.23,1.32,2.87,2.87,0,0,0,.59,1,3.43,3.43,0,0,0,1.11.82,6.14,6.14,0,0,0,3,.67h.25a7.61,7.61,0,0,0,1.64-.15,4.37,4.37,0,0,0,.92-.29,12,12,0,0,0,1.47-.69,12.72,12.72,0,0,0,1.32-1l3.15,3.63A12.59,12.59,0,0,1,115.17,27.48ZM107.59,13a3.19,3.19,0,0,0-1,1.07,3.9,3.9,0,0,0-.46.94,2.24,2.24,0,0,0-.15.78h7.76a4.89,4.89,0,0,0-.13-.92,2.91,2.91,0,0,0-.38-1,2.27,2.27,0,0,0-.84-.9,4.43,4.43,0,0,0-2.43-.63A4.24,4.24,0,0,0,107.59,13Z"/><circle class="cls-2" cx="38.62" cy="20.73" r="7.35"/><path class="cls-1" d="M72,16.49a7.23,7.23,0,0,0-3.86-4.61,22.23,22.23,0,0,0-6.44-1.61,15.61,15.61,0,0,1-4.74-1,1.79,1.79,0,0,1-1-1.49V7.68a1.46,1.46,0,0,1,.78-1.17A6,6,0,0,1,60,5.87a9.85,9.85,0,0,1,3.25.38,2.93,2.93,0,0,1,1.59,2.2h4.91a.83.83,0,0,0,.83-.81V1.13a.83.83,0,0,0-.83-.81H66.66l-.4,1.38a9.83,9.83,0,0,0-1-.61A11.4,11.4,0,0,0,60,0a17.45,17.45,0,0,0-6.5.94A7.27,7.27,0,0,0,51.3,2.35a8.25,8.25,0,0,0-2.37,4.36,9.65,9.65,0,0,0-.21,2,8,8,0,0,0,.57,3,6.59,6.59,0,0,0,3.44,3.61,16.87,16.87,0,0,0,2.43.84q1.57.42,4.3.92,1.55.34,2.94.59a6.59,6.59,0,0,1,1.38.57,2.25,2.25,0,0,1,1.13,2,2.51,2.51,0,0,1-1.32,2.27,6.76,6.76,0,0,1-3.29.67h-.23a6.07,6.07,0,0,1-2.94-.67A4.41,4.41,0,0,1,55.2,19.8H49a.83.83,0,0,0-.83.83v6.46a.83.83,0,0,0,.75.83h3.18l.65-2.27a9,9,0,0,0,1.38,1,10.55,10.55,0,0,0,6.06,1.59A16.13,16.13,0,0,0,67.54,27a7.94,7.94,0,0,0,2.66-2.16,10.12,10.12,0,0,0,1.38-2.31,9.49,9.49,0,0,0,.76-3.61A8.26,8.26,0,0,0,72,16.49Z"/><polygon class="cls-1" points="66.72 10.55 66.68 10.53 66.68 10.55 66.72 10.55"/><path class="cls-1" d="M16.11,27.6V21.69h2.74a.28.28,0,0,0,.28-.28V16.17a.28.28,0,0,0-.28-.28H10.8a.28.28,0,0,0-.28.28v5.24a.28.28,0,0,0,.28.28h2.36V27.6H.55A.55.55,0,0,1,0,27v-4.8a.55.55,0,0,1,.55-.55H2.83a.28.28,0,0,0,.28-.28V6.77a.28.28,0,0,0-.28-.28H.55A.55.55,0,0,1,0,5.94V1.14A.55.55,0,0,1,.55.59h12.6V6.5H10.8a.28.28,0,0,0-.28.28v3.38a.28.28,0,0,0,.28.28h8.05a.28.28,0,0,0,.28-.28V6.77a.28.28,0,0,0-.28-.28H16.11V.59H28.7a.55.55,0,0,1,.55.55v4.8a.55.55,0,0,1-.55.55H26.8a.28.28,0,0,0-.28.28V21.41a.28.28,0,0,0,.28.28h1.9a.56.56,0,0,1,.55.55V27a.56.56,0,0,1-.55.55Z"/><path class="cls-1" d="M75.47,14.93h0Z"/><path class="cls-1" d="M96.24,13a9.74,9.74,0,0,0-3.78-3.52A11.53,11.53,0,0,0,87,8.35H85.83a9.19,9.19,0,0,0-5.05,1.72L80,8.45H75.55a.83.83,0,0,0-.83.83v4.82a.83.83,0,0,0,.75.83h.8V29.82h-.93a.83.83,0,0,0-.83.83v4.8a.83.83,0,0,0,.83.83H84.6V29.82H83V26.55a5,5,0,0,0,4,1.7,10.57,10.57,0,0,0,7.82-2.89,9.52,9.52,0,0,0,2.89-7v-.08A9.59,9.59,0,0,0,96.24,13Zm-6.31,8.26A3.26,3.26,0,0,1,87,22.61a3.23,3.23,0,0,1-2.92-1.3,5.08,5.08,0,0,1-.86-2.94,5.45,5.45,0,0,1,.86-3,3.8,3.8,0,0,1,5.83,0,5.45,5.45,0,0,1,.86,3A5.08,5.08,0,0,1,89.92,21.31Z"/><path class="cls-1" d="M137.82,21.23a5.3,5.3,0,0,1-1.55.92,7.16,7.16,0,0,1-2,.52,7.56,7.56,0,0,1-.8,0,9.85,9.85,0,0,1-1.09-.06,9.18,9.18,0,0,1-2-.48,4.89,4.89,0,0,1-1.64-1.11,4.22,4.22,0,0,1-1.17-3,4.62,4.62,0,0,1,1.15-3.1,4.53,4.53,0,0,1,3.63-1.32h.08q2.68.27,2.73,2.43h4a.83.83,0,0,0,.83-.83V9.3a.83.83,0,0,0-.83-.83H137l-.8,1.13A5.9,5.9,0,0,0,132,8.05a12.43,12.43,0,0,0-4.19.61,9.9,9.9,0,0,0-4.68,3.42A9.79,9.79,0,0,0,121.25,18v.23a9.79,9.79,0,0,0,1.93,5.87,9.9,9.9,0,0,0,4.68,3.42,11,11,0,0,0,3.78.61h.76a17.09,17.09,0,0,0,4.15-.69A12.6,12.6,0,0,0,141,24.85Z"/><path class="cls-1" d="M153.39,13.09a.83.83,0,0,0,.83-.83v-3a.83.83,0,0,0-.83-.83h-2.72V1.54a.83.83,0,0,0-.83-.83H145a61.78,61.78,0,0,1-1.15,7.74h-1.54a.83.83,0,0,0-.83.83v3a.83.83,0,0,0,.83.83h1.39v7.66a9.57,9.57,0,0,0,.71,4.22,5.53,5.53,0,0,0,5.18,3.1h.06a26.77,26.77,0,0,0,4.53-.73V22.5a2.24,2.24,0,0,1-1.68.69l-.34,0a1.5,1.5,0,0,1-1.41-1.11,5.91,5.91,0,0,1-.13-1.51V13.09Z"/><path class="cls-1" d="M170.47,8.22a7.92,7.92,0,0,0-5.2,2.14l-.84-1.91h-7a.83.83,0,0,0-.83.83v4.84a.83.83,0,0,0,.65.81l.18,0h.85v6.46h-.85a.83.83,0,0,0-.83.83V27a.83.83,0,0,0,.83.83h9.38V21.41h-1.57v-3.9a4.23,4.23,0,0,1,1.07-2.85,3,3,0,0,1,2.29-1.17h.11a9.2,9.2,0,0,1,3.33,1l.9-5.87A7.52,7.52,0,0,0,170.47,8.22Z"/><path class="cls-1" d="M196.88,21.41h-.64v-13h-7.37a.83.83,0,0,0-.83.83v4.84a.83.83,0,0,0,.65.81l.18,0h.41v4.11a4.16,4.16,0,0,1-1.07,2.83,2.8,2.8,0,0,1-4.57,0,4.15,4.15,0,0,1-1.07-2.83V8.45H175a.83.83,0,0,0-.83.83v4.84A.83.83,0,0,0,175,15h.64v4.13a9,9,0,0,0,1.28,4.64A8.75,8.75,0,0,0,180.14,27,7.48,7.48,0,0,0,184,28.1l.55,0a8.32,8.32,0,0,0,4.74-2.1l.84,1.89h6.7a.68.68,0,0,0,.68-.68v-5.1A.68.68,0,0,0,196.88,21.41Z"/><path class="cls-1" d="M235.17,21.41h-.89V17.28a9.88,9.88,0,0,0-1.13-4.66,8.41,8.41,0,0,0-3-3.29,6.49,6.49,0,0,0-3.54-1.07l-.57,0a8.09,8.09,0,0,0-4.61,2.08,11.74,11.74,0,0,0-1.47,1.7,7.39,7.39,0,0,0-4.89-3.65,7,7,0,0,0-1.41-.15,7.79,7.79,0,0,0-5.05,2.1l-.84-1.91h-6.85a.83.83,0,0,0-.83.83v4.79a.83.83,0,0,0,.83.83h.66l.06,0v6.48h-.93a.83.83,0,0,0-.83.83V27a.83.83,0,0,0,.83.83h9.64V21.41h-1.74V17.3a4.7,4.7,0,0,1,.86-2.85,2.4,2.4,0,0,1,4.13,0,4.68,4.68,0,0,1,.88,2.81V27.87h7.82a.85.85,0,0,0,.85-.85v-4.8a.86.86,0,0,0-.85-.85h-.87v-4.1a4.77,4.77,0,0,1,.88-2.83,2.4,2.4,0,0,1,4.13,0,4.57,4.57,0,0,1,.86,2.81V27.87h7.85A.83.83,0,0,0,236,27v-4.8A.83.83,0,0,0,235.17,21.41Z"/></g></g></svg>