<svg xmlns="http://www.w3.org/2000/svg" viewBox="0 0 237.63 88.3"><defs><style>.cls-1{fill:#231815;}</style></defs><title>資產 1</title><g id="圖層_2" data-name="圖層 2"><g id="圖層_1-2" data-name="圖層 1"><path class="cls-1" d="M0,55.05H6.48V41.69h10.8V81h-6.7V87.5H32V81H25.18V41.69H35.95V55.05h6.48V35.14H0m177.48,6.55h7.4V75.84l-23-40.7H144.05v6.55h7.49V81H138.42l-14.65-39.9h6.55v-5.9H103.55v5.91h6.33L95.58,81h-12l-9.25-19q10.79-2.67,10.79-13.06a13.24,13.24,0,0,0-2.55-8.3,11.9,11.9,0,0,0-6.48-4.37,43.61,43.61,0,0,0-10.59-1H44.27v6.55h7.18V81H44.27V87.5H66.07V81H59.36V63h7.38L78.66,87.5h31.22V81h-6.36l4-11.85h18.87L130.27,81h-6.51V87.5H165.5V81H158V43.34L183.14,88h8.12V41.69H199V35.15H177.47v6.55Zm-112,14.8H59.37V41.69h6.7a29.79,29.79,0,0,1,6.16.47,6,6,0,0,1,3.39,2.24A6.82,6.82,0,0,1,77,48.72a7.8,7.8,0,0,1-1.35,4.81,6.46,6.46,0,0,1-3.49,2.38,27.78,27.78,0,0,1-6.61.58M109.49,63l7.24-21.92h.71l7,21.91H109.49ZM235.37,64.5A13.56,13.56,0,0,0,230,59.28a55.57,55.57,0,0,0-10-3.36,60.91,60.91,0,0,1-7.11-2.11,6.84,6.84,0,0,1-3-2.35A6.19,6.19,0,0,1,211,43c1.54-1.32,3.73-2,6.59-2a12.65,12.65,0,0,1,11.11,6.06v3.65h6.4V34.88h-6.4v3.49A19,19,0,0,0,217,34.31a15.91,15.91,0,0,0-11,3.93,13.46,13.46,0,0,0-4.37,10.52A13,13,0,0,0,209,60.89a60,60,0,0,0,10.42,3.56q6.05,1.62,8.24,3.25t2.18,5.36a7.92,7.92,0,0,1-2.67,6.21,9.58,9.58,0,0,1-6.55,2.37q-7.6,0-12.3-8.54V68.48h-6.56v19h6.56V83.15a18.75,18.75,0,0,0,12.87,5.15,16.57,16.57,0,0,0,11.69-4.36,14.42,14.42,0,0,0,4.73-11.07,15.67,15.67,0,0,0-2.26-8.4M44.91,0h3.29V7.42H44.91ZM68,0h5.37V7.42H68Zm23.1,0h7.45V7.42H91.11Zm23.1,0h9.53V7.42h-9.53ZM137.3,0h11.61V7.42H137.3Zm23.1,0H174.1V7.42H160.41ZM183.5,0h15.77V7.42H183.5Z"/></g></g></svg>