<svg xmlns="http://www.w3.org/2000/svg" viewBox="0 0 77 77"><defs><style>.cls-1{fill:#fff;}.cls-2{fill:none;stroke:#fff;stroke-miterlimit:10;}</style></defs><title>資產 3</title><g id="圖層_2" data-name="圖層 2"><g id="圖層_1-2" data-name="圖層 1"><path class="cls-1" d="M32.47,69.26a31.51,31.51,0,0,1-19.67-12.8H24.25C26.21,62.24,29.08,66.78,32.47,69.26Z"/><path class="cls-1" d="M21.5,39.86a59,59,0,0,0,1.91,13.83H11.07A31.25,31.25,0,0,1,7.17,39.86Z"/><path class="cls-1" d="M37.1,39.86V53.68H26.6a58.67,58.67,0,0,1-1.89-13.83Z"/><path class="cls-1" d="M27.45,56.46H37.1v11.8C33.18,67.44,29.71,63,27.45,56.46Z"/><path class="cls-1" d="M11.09,23.25H23.4a57.55,57.55,0,0,0-1.9,13.9H7.17A31,31,0,0,1,11.09,23.25Z"/><path class="cls-1" d="M37.1,23.25v13.9H24.71a57.79,57.79,0,0,1,1.88-13.9Z"/><path class="cls-1" d="M24.24,20.47H12.83A31.3,31.3,0,0,1,32.35,7.74C29,10.24,26.18,14.7,24.24,20.47Z"/><path class="cls-1" d="M37.1,8.52v12H27.44C29.7,13.85,33.18,9.35,37.1,8.52Z"/><path class="cls-1" d="M39.88,56.46h9.64c-2.24,6.49-5.72,10.9-9.64,11.78V56.46Z"/><path class="cls-1" d="M52.26,39.86a58.67,58.67,0,0,1-1.89,13.83H39.88V39.86Z"/><path class="cls-1" d="M50.38,23.25a57.79,57.79,0,0,1,1.88,13.9H39.88V23.25Z"/><path class="cls-1" d="M49.53,20.47H39.88V8.54C43.87,9.43,47.28,13.92,49.53,20.47Z"/><path class="cls-1" d="M64.17,20.47H52.73C50.79,14.7,48,10.23,44.6,7.73A31.35,31.35,0,0,1,64.17,20.47Z"/><path class="cls-1" d="M69.83,37.15H55.47a57.55,57.55,0,0,0-1.9-13.9H65.91A31,31,0,0,1,69.83,37.15Z"/><path class="cls-1" d="M52.72,56.46H64.19A31.56,31.56,0,0,1,44.48,69.27C47.88,66.79,50.76,62.24,52.72,56.46Z"/><path class="cls-1" d="M69.83,39.86a31.25,31.25,0,0,1-3.89,13.83H53.56a59,59,0,0,0,1.91-13.83Z"/><path class="cls-1" d="M37.1,39.86V53.68H26.6a58.67,58.67,0,0,1-1.89-13.83Z"/><path class="cls-1" d="M27.45,56.46H37.1v11.8C33.18,67.44,29.71,63,27.45,56.46Z"/><path class="cls-1" d="M37.1,23.25v13.9H24.71a57.79,57.79,0,0,1,1.88-13.9Z"/><path class="cls-1" d="M37.1,8.52v12H27.44C29.7,13.85,33.18,9.35,37.1,8.52Z"/><path class="cls-1" d="M39.88,56.46h9.64c-2.24,6.49-5.72,10.9-9.64,11.78V56.46Z"/><path class="cls-1" d="M52.26,39.86a58.67,58.67,0,0,1-1.89,13.83H39.88V39.86Z"/><path class="cls-1" d="M50.38,23.25a57.79,57.79,0,0,1,1.88,13.9H39.88V23.25Z"/><path class="cls-1" d="M49.53,20.47H39.88V8.54C43.87,9.43,47.28,13.92,49.53,20.47Z"/><path class="cls-1" d="M37.1,8.52v12H27.44C29.7,13.85,33.18,9.35,37.1,8.52Z"/><path class="cls-1" d="M37.1,23.25v13.9H24.71a57.79,57.79,0,0,1,1.88-13.9Z"/><path class="cls-1" d="M37.1,39.86V53.68H26.6a58.67,58.67,0,0,1-1.89-13.83Z"/><path class="cls-1" d="M27.45,56.46H37.1v11.8C33.18,67.44,29.71,63,27.45,56.46Z"/><path class="cls-1" d="M39.88,56.46h9.64c-2.24,6.49-5.72,10.9-9.64,11.78V56.46Z"/><path class="cls-1" d="M52.26,39.86a58.67,58.67,0,0,1-1.89,13.83H39.88V39.86Z"/><path class="cls-1" d="M49.53,20.47H39.88V8.54C43.87,9.43,47.28,13.92,49.53,20.47Z"/><path class="cls-1" d="M52.26,37.15H39.88V23.25h10.5A57.79,57.79,0,0,1,52.26,37.15Z"/><circle class="cls-2" cx="38.5" cy="38.5" r="38"/></g></g></svg>