<svg xmlns="http://www.w3.org/2000/svg" xmlns:xlink="http://www.w3.org/1999/xlink" viewBox="0 0 77 77"><defs><style>.cls-1,.cls-4{fill:none;}.cls-2{clip-path:url(#clip-path);}.cls-3{fill:#fff;}.cls-4{stroke:#fff;stroke-miterlimit:10;}</style><clipPath id="clip-path"><circle class="cls-1" cx="38.5" cy="38.5" r="31.58"/></clipPath></defs><title>資產 4</title><g id="圖層_2" data-name="圖層 2"><g id="圖層_1-2" data-name="圖層 1"><g class="cls-2"><path class="cls-3" d="M50.87,43.72A42.92,42.92,0,0,0,38.5,9.08h0A42.91,42.91,0,0,0,26.13,43.72L9.68,55.91l3.6,10.81H24.09l7.2-12.61H45.7l7.2,12.61H63.71l3.6-10.81ZM38.5,36.1a5.4,5.4,0,1,1,5.4-5.4A5.4,5.4,0,0,1,38.5,36.1Z"/><path class="cls-3" d="M63.71,67.44H52.91a.72.72,0,0,1-.63-.36l-7-12.24H31.71l-7,12.24a.72.72,0,0,1-.63.36H13.29a.72.72,0,0,1-.68-.49L9,56.14a.72.72,0,0,1,.25-.81L25.38,43.38A43.6,43.6,0,0,1,38,8.58a.72.72,0,0,1,1,0A43.61,43.61,0,0,1,51.63,43.38L67.74,55.33a.72.72,0,0,1,.25.81L64.4,66.94A.72.72,0,0,1,63.71,67.44ZM53.33,66h9.87l3.27-9.82-16-11.88a.72.72,0,0,1-.29-.65A42.18,42.18,0,0,0,38.5,10.11,42.18,42.18,0,0,0,26.85,43.65a.72.72,0,0,1-.29.65l-16,11.88L13.81,66h9.87l7-12.24a.72.72,0,0,1,.63-.36H45.7a.72.72,0,0,1,.63.36ZM38.5,36.82a6.12,6.12,0,1,1,6.12-6.12A6.13,6.13,0,0,1,38.5,36.82ZM38.5,26a4.68,4.68,0,1,0,4.68,4.68A4.69,4.69,0,0,0,38.5,26Z"/><path class="cls-3" d="M35.14,58.61a11.43,11.43,0,0,0,3.36,8.1,11.43,11.43,0,0,0,3.36-8.1Z"/><path class="cls-3" d="M38.5,67.44a.72.72,0,0,1-.51-.21,12.11,12.11,0,0,1-3.57-8.61.72.72,0,0,1,.72-.72h6.71a.72.72,0,0,1,.72.72A12.12,12.12,0,0,1,39,67.22.72.72,0,0,1,38.5,67.44Zm-2.61-8.1a10.65,10.65,0,0,0,2.61,6.33,10.66,10.66,0,0,0,2.61-6.33Z"/><path class="cls-3" d="M38.5,36.82a6.12,6.12,0,1,1,6.12-6.12A6.13,6.13,0,0,1,38.5,36.82ZM38.5,26a4.68,4.68,0,1,0,4.68,4.68A4.69,4.69,0,0,0,38.5,26Z"/></g><circle class="cls-4" cx="38.5" cy="38.5" r="38"/></g></g></svg>