<svg xmlns="http://www.w3.org/2000/svg" xmlns:xlink="http://www.w3.org/1999/xlink" viewBox="0 0 77 77"><defs><style>.cls-1,.cls-4{fill:none;}.cls-2{clip-path:url(#clip-path);}.cls-3{fill:#fff;}.cls-4{stroke:#fff;stroke-miterlimit:10;}</style><clipPath id="clip-path"><circle class="cls-1" cx="38.5" cy="38.5" r="31.59"/></clipPath></defs><title>資產 2</title><g id="圖層_2" data-name="圖層 2"><g id="圖層_1-2" data-name="圖層 1"><g class="cls-2"><path class="cls-3" d="M29.87,25.31A6.91,6.91,0,1,1,23,32.22,6.91,6.91,0,0,1,29.87,25.31Zm10.36,6.91a6.91,6.91,0,1,0,6.91-6.91A6.91,6.91,0,0,0,40.23,32.22ZM38.5,9.77a6.91,6.91,0,1,0,6.91,6.91A6.91,6.91,0,0,0,38.5,9.77ZM64.4,65a1.73,1.73,0,0,0,1.73-1.73,10.36,10.36,0,0,0-6.73-9.69,6.91,6.91,0,1,0-7.27,0,10.36,10.36,0,0,0-5,4,10.36,10.36,0,0,0-5-4,6.91,6.91,0,1,0-7.27,0,10.36,10.36,0,0,0-5,4,10.36,10.36,0,0,0-5-4,6.91,6.91,0,1,0-7.27,0,10.36,10.36,0,0,0-6.73,9.7A1.73,1.73,0,0,0,12.6,65Z"/><rect class="cls-3" x="15.49" y="63.05" width="42.93" height="10.57"/></g><circle class="cls-4" cx="38.5" cy="38.5" r="38"/></g></g></svg>