<svg xmlns="http://www.w3.org/2000/svg" viewBox="0 0 40.89 40.88"><title>資產 2</title><g id="圖層_2" data-name="圖層 2"><g id="圖層_1-2" data-name="圖層 1"><path d="M20.44,0A20.44,20.44,0,1,0,40.89,20.43,20.44,20.44,0,0,0,20.44,0ZM31.11,16.76A13.41,13.41,0,0,1,10.49,28.67a9.48,9.48,0,0,0,7-2,4.72,4.72,0,0,1-4.4-3.27,4.72,4.72,0,0,0,2.13-.08,4.72,4.72,0,0,1-3.78-4.68,4.7,4.7,0,0,0,2.14.59A4.72,4.72,0,0,1,12.08,13,13.38,13.38,0,0,0,21.8,17.9a4.72,4.72,0,0,1,8-4.3,9.45,9.45,0,0,0,3-1.15,4.72,4.72,0,0,1-2.07,2.61,9.42,9.42,0,0,0,2.71-.74A9.55,9.55,0,0,1,31.11,16.76Z"/></g></g></svg>