<svg xmlns="http://www.w3.org/2000/svg" viewBox="0 0 40.89 40.88"><title>資產 4</title><g id="圖層_2" data-name="圖層 2"><g id="圖層_1-2" data-name="圖層 1"><path d="M20.44,0A20.44,20.44,0,1,0,40.89,20.43,20.44,20.44,0,0,0,20.44,0ZM31.52,29.48c-.66,0-1.32,0-2,0H24.09c-.5,0-.52,0-.53-.54s0-1.05,0-1.58c0-.29.12-.4.4-.39s.66,0,1,0,.49-.11.49-.47c0-2,0-4.06,0-6.09,0-1.53,0-3.06,0-4.59a4.8,4.8,0,0,0-.07-.59h-.11a1.11,1.11,0,0,0-.12.22l-1.5,5.34c-.35,1.25-.69,2.51-1.05,3.75q-.62,2.16-1.26,4.31c-.16.55-.24.6-.81.6H18.4c-.28,0-.41-.11-.48-.4-.24-1-.52-1.93-.78-2.9l-.76-2.82-.72-2.62c-.27-1-.55-1.95-.81-2.92-.13-.49-.23-1-.35-1.49,0-.07-.07-.13-.2-.19a6,6,0,0,0-.09.74c0,3.23,0,6.46,0,9.68,0,.3.12.44.42.42s.5,0,.75,0,.44.12.43.42c0,.58,0,1.16,0,1.74,0,.26-.14.37-.4.37h-6c-.32,0-.44-.12-.43-.45,0-.55,0-1.11,0-1.66,0-.29.1-.42.39-.41h.51a.9.9,0,0,0,1-1c0-.51,0-1,0-1.54q0-4.53,0-9.05c0-.93-.3-1.21-1.21-1.17-.65,0-.66,0-.66-.64s0-1.19,0-1.78c0-.29.1-.39.39-.39q3.8,0,7.59,0c.41,0,.57.17.67.55.5,1.91,1,3.81,1.53,5.72.33,1.22.64,2.44,1,3.66,0,.13.09.26.14.38h.11a2.15,2.15,0,0,0,.14-.32q.57-2.11,1.14-4.23c.36-1.35.7-2.7,1-4a11.58,11.58,0,0,1,.41-1.4.68.68,0,0,1,.51-.31c.66,0,1.32,0,2,0l6,0c.28,0,.38.12.37.38,0,.69,0,1.37,0,2.06,0,.29-.12.41-.4.39s-.37,0-.55,0a.85.85,0,0,0-.91.92c0,.65,0,1.29,0,1.94q0,4.37,0,8.74c0,.87.29,1.17,1.15,1.17h.28c.32,0,.46.11.45.43,0,.54,0,1.08,0,1.62C32,29.36,31.87,29.49,31.52,29.48Z"/></g></g></svg>