<?xml version="1.0" encoding="UTF-8" standalone="no"?>
<svg width="103px" height="103px" viewBox="0 0 103 103" version="1.1" xmlns="http://www.w3.org/2000/svg" xmlns:xlink="http://www.w3.org/1999/xlink">
    <!-- Generator: Sketch 40 (33762) - http://www.bohemiancoding.com/sketch -->
    <title>Group</title>
    <desc>Created with Sketch.</desc>
    <defs></defs>
    <g id="Page-1" stroke="none" stroke-width="1" fill="none" fill-rule="evenodd">
        <g id="Group" fill="#FFFFFF">
            <path d="M51.5,96 C76.0806338,96 96,76.0789629 96,51.5 C96,26.9193662 76.0789629,7 51.5,7 C26.9193662,7 7,26.9210371 7,51.5 C7,76.0806338 26.9210371,96 51.5,96 Z M51.5,0 C79.9426646,0 103,23.0510816 103,51.5 C103,79.9426646 79.9489184,103 51.5,103 C23.0573354,103 0,79.9489184 0,51.5 C0,23.0573354 23.0510816,0 51.5,0 Z" id="Rectangle"></path>
            <path d="M76.3290214,53.3805158 C76.7486023,52.8670089 77,52.2126414 77,51.5 C77,50.7873586 76.7486023,50.1329911 76.3290214,49.6194842 L62.0286181,28.3307692 C61.1063482,26.9578049 59.2372293,26.5868025 57.8538244,27.502112 C56.4704194,28.4174215 56.0965956,30.2724339 57.0188656,31.6453981 L68.3489319,48.5122338 L27.0104866,48.5122338 C25.3478408,48.5122338 24,49.8499023 24,51.5 C24,53.1500977 25.3478408,54.4877662 27.0104866,54.4877662 L68.3489319,54.4877662 L57.0188656,71.3546019 C56.0965956,72.7275661 56.4704194,74.5825785 57.8538244,75.497888 C59.2372293,76.4131975 61.1063482,76.0421951 62.0286181,74.6692308 L76.3290214,53.3805158 Z" id="Combined-Shape"></path>
        </g>
    </g>
</svg>