<svg xmlns="http://www.w3.org/2000/svg" viewBox="0 0 26 26"><title>資產 2</title><g id="圖層_2" data-name="圖層 2"><g id="圖層_1-2" data-name="圖層 1"><path d="M12.07,1.7A1.59,1.59,0,0,0,10.51,0H1.68A1.69,1.69,0,0,0,0,1.7v9c0,.94.75,1.39,1.68,1.39h8.84c.93,0,1.56-.45,1.56-1.39Z"/><path d="M12.07,15.32c0-.94-.63-1.39-1.56-1.39H1.68c-.93,0-1.68.45-1.68,1.39v9A1.69,1.69,0,0,0,1.68,26h8.84a1.59,1.59,0,0,0,1.56-1.7Z"/><path d="M26,15.32c0-.94-.75-1.39-1.68-1.39H15.49c-.93,0-1.56.45-1.56,1.39v9A1.6,1.6,0,0,0,15.49,26h8.84A1.69,1.69,0,0,0,26,24.3Z"/><path d="M26,1.7A1.69,1.69,0,0,0,24.32,0H15.49a1.59,1.59,0,0,0-1.56,1.7v9c0,.94.63,1.39,1.56,1.39h8.84c.93,0,1.68-.45,1.68-1.39Z"/></g></g></svg>